<svg width="24" height="24" viewBox="0 0 24 24" fill="none" xmlns="http://www.w3.org/2000/svg">
<path d="M13.6133 1.93348C14.2861 2.32276 14.277 3.29715 13.597 3.67379C13.2899 3.84392 12.916 3.8405 12.6121 3.66479L12.5011 3.60067C12.1911 3.42148 11.809 3.42171 11.4992 3.60125L5.99358 6.79232C5.32867 7.1777 5.32891 8.13788 5.99401 8.52293L11.501 11.7111C11.8098 11.8899 12 12.2197 12 12.5766V18.9554C12 19.7257 12.8344 20.2068 13.5011 19.8208L19.0011 16.6359C19.3099 16.4571 19.5 16.1273 19.5 15.7705V12.0735C19.5 11.7183 19.6884 11.3898 19.9951 11.2104C20.6617 10.8204 21.5 11.3012 21.5 12.0735V16.9234C21.5 17.2803 21.3099 17.6101 21.001 17.7889L12.501 22.7099C12.1911 22.8894 11.8089 22.8894 11.499 22.7099L2.99896 17.7889C2.69015 17.6101 2.5 17.2803 2.5 16.9234V7.07655C2.5 6.71971 2.69015 6.38992 2.99896 6.21113L11.4991 1.28999C11.809 1.1106 12.1911 1.11056 12.501 1.28986L13.6133 1.93348Z" fill="#085AD4"/>
<path d="M18.1988 1.44282C18.1096 1.5033 18.0406 1.58916 18.0007 1.68928L17.7319 2.33946C17.2803 3.43849 16.4244 4.32251 15.3405 4.80948L14.5778 5.14944C14.4799 5.19444 14.3971 5.26655 14.339 5.35721C14.2809 5.44788 14.25 5.5533 14.25 5.66097C14.25 5.76865 14.2809 5.87407 14.339 5.96474C14.3971 6.0554 14.4799 6.12751 14.5778 6.17251L15.3852 6.53159C16.4428 7.00558 17.2844 7.85887 17.7436 8.923L18.005 9.52324C18.0458 9.62116 18.1147 9.7048 18.203 9.76363C18.2913 9.82246 18.395 9.85385 18.5011 9.85385C18.6072 9.85385 18.7109 9.82246 18.7992 9.76363C18.8875 9.7048 18.9564 9.62116 18.9972 9.52324L19.2596 8.92194C19.7186 7.85858 20.5593 7.00576 21.616 6.53159L22.4234 6.17251C22.5209 6.12738 22.6035 6.05528 22.6614 5.96474C22.7192 5.87419 22.75 5.76897 22.75 5.66151C22.75 5.55404 22.7192 5.44882 22.6614 5.35828C22.6035 5.26773 22.5209 5.19563 22.4234 5.1505L21.6606 4.81054C20.577 4.32309 19.7215 3.4387 19.2703 2.33946L19.0015 1.68928C18.9616 1.58916 18.8926 1.5033 18.8034 1.44282C18.7142 1.38233 18.6089 1.35 18.5011 1.35C18.3933 1.35 18.288 1.38233 18.1988 1.44282Z" fill="#085AD4"/>
</svg>
