<svg xmlns="http://www.w3.org/2000/svg" width="20" height="20" viewBox="0 0 20 20" fill="none">
  <path d="M6.24996 7.08335H13.75M6.24996 10.4167H10.8333M18.3333 8.75002C18.3333 8.10835 18.3216 7.48085 18.3 6.87502C18.2308 4.89752 18.1958 3.90835 17.3916 3.09752C16.5875 2.28752 15.57 2.24419 13.5366 2.15669C12.3584 2.10722 11.1792 2.08277 9.99996 2.08335C8.76663 2.08335 7.57913 2.10835 6.46329 2.15669C4.42996 2.24419 3.41329 2.28752 2.60829 3.09835C1.80413 3.90835 1.76913 4.89752 1.69996 6.87502C1.656 8.12463 1.656 9.37541 1.69996 10.625C1.76913 12.6025 1.80413 13.5917 2.60829 14.4025C3.41246 15.2125 4.42996 15.2559 6.46329 15.3434C7.07552 15.3695 7.70746 15.3889 8.35913 15.4017C8.97579 15.4134 9.28496 15.4184 9.55663 15.5225C9.8283 15.6267 10.0566 15.8209 10.5133 16.2125L12.3291 17.7709C12.4175 17.8466 12.5257 17.8954 12.641 17.9114C12.7563 17.9275 12.8737 17.9101 12.9795 17.8615C13.0852 17.8128 13.1747 17.7348 13.2374 17.6367C13.3001 17.5387 13.3334 17.4247 13.3333 17.3084V15.3517L13.5366 15.3434C15.57 15.2559 16.5866 15.2125 17.3916 14.4017C18.1958 13.5917 18.2308 12.6025 18.3 10.625C18.3216 10.0192 18.3333 9.39169 18.3333 8.75002Z" stroke="#6F7581" stroke-width="1.5" stroke-linecap="round" stroke-linejoin="round"/>
</svg>