<svg width="20" height="20" viewBox="0 0 20 20" fill="none" xmlns="http://www.w3.org/2000/svg">
<path d="M15.1374 7.61691C15.8387 7.61691 16.1893 7.61692 16.4659 7.73145C16.8347 7.88422 17.1277 8.17726 17.2804 8.546C17.395 8.82263 17.395 9.17324 17.395 9.87453L17.395 14.9918C17.395 15.8347 17.395 16.2562 17.231 16.5781C17.0867 16.8613 16.8564 17.0916 16.5732 17.2359C16.2513 17.3999 15.8298 17.3999 14.9869 17.3999H9.86962C9.16833 17.3999 8.81772 17.3999 8.54108 17.2854C8.17234 17.1326 7.8793 16.8396 7.72654 16.4708C7.612 16.1942 7.612 15.8436 7.612 15.1423" stroke="#252A32" stroke-width="1.5" stroke-linecap="round" stroke-linejoin="round"/>
<path d="M5.00316 2.60001L9.96991 2.60001C10.8128 2.60001 11.2343 2.60001 11.5563 2.76406C11.8395 2.90832 12.0697 3.1386 12.214 3.42178C12.378 3.74371 12.378 4.16521 12.378 5.00813V9.97489C12.378 10.8178 12.378 11.2393 12.214 11.5612C12.0697 11.8444 11.8394 12.0747 11.5563 12.219C11.2343 12.383 10.8128 12.383 9.96991 12.383H5.00315C4.16024 12.383 3.73874 12.383 3.4168 12.219C3.13362 12.0747 2.90335 11.8444 2.75909 11.5612C2.59503 11.2393 2.59503 10.8178 2.59503 9.97489L2.59503 5.00813C2.59503 4.16521 2.59503 3.74371 2.75909 3.42178C2.90335 3.1386 3.13362 2.90832 3.4168 2.76406C3.73874 2.60001 4.16024 2.60001 5.00316 2.60001Z" stroke="#252A32" stroke-width="1.5" stroke-linecap="round" stroke-linejoin="round"/>
</svg>
