<svg xmlns="http://www.w3.org/2000/svg" width="20" height="20" viewBox="0 0 20 20" fill="none">
  <path d="M10 9.82019V10M10 10.8125C10.4487 10.8125 10.8125 10.4487 10.8125 10C10.8125 9.55126 10.4487 9.1875 10 9.1875C9.55126 9.1875 9.1875 9.55126 9.1875 10C9.1875 10.4487 9.55126 10.8125 10 10.8125Z" stroke="#252A32" stroke-width="1.4625" stroke-linecap="round" stroke-linejoin="round"/>
  <path d="M10 4.14999V4.32981M10 5.125C10.4487 5.125 10.8125 4.76123 10.8125 4.3125C10.8125 3.86377 10.4487 3.5 10 3.5C9.55126 3.5 9.1875 3.86377 9.1875 4.3125C9.1875 4.76123 9.55126 5.125 10 5.125Z" stroke="#252A32" stroke-width="1.4625" stroke-linecap="round" stroke-linejoin="round"/>
  <path d="M10 15.6702V15.85M10 16.5C10.4487 16.5 10.8125 16.1362 10.8125 15.6875C10.8125 15.2388 10.4487 14.875 10 14.875C9.55126 14.875 9.1875 15.2388 9.1875 15.6875C9.1875 16.1362 9.55126 16.5 10 16.5Z" stroke="#252A32" stroke-width="1.4625" stroke-linecap="round" stroke-linejoin="round"/>
</svg>