<svg xmlns="http://www.w3.org/2000/svg" width="20" height="20" viewBox="0 0 20 20" fill="none">
  <path d="M16.5666 5.90011V5.73611C16.5666 4.35838 16.5666 3.66951 16.2985 3.14329C16.0626 2.68041 15.6863 2.30408 15.2234 2.06823C14.6972 1.80011 14.0084 1.80011 12.6306 1.80011H7.38259C6.00486 1.80011 5.316 1.80011 4.78978 2.06823C4.3269 2.30408 3.95057 2.68041 3.71472 3.14329C3.44659 3.66951 3.44659 4.35838 3.44659 5.73611V14.2641C3.44659 15.6419 3.44659 16.3307 3.71472 16.8569C3.95057 17.3198 4.3269 17.6961 4.78978 17.932C5.316 18.2001 6.00486 18.2001 7.38259 18.2001H10.4166M10.4166 9.18011H6.72659M9.5966 12.4601H6.72659M13.2866 5.90011H6.72659M14.9266 14.9201V10.4101C14.9266 9.73082 15.4773 9.18011 16.1566 9.18011C16.8359 9.18011 17.3866 9.73082 17.3866 10.4101V14.9201C17.3866 16.2788 16.2853 17.3801 14.9266 17.3801C13.5679 17.3801 12.4666 16.2788 12.4666 14.9201V11.6401" stroke="white" stroke-width="1.5" stroke-linecap="round" stroke-linejoin="round"/>
</svg>