<svg xmlns="http://www.w3.org/2000/svg" width="17" height="17" viewBox="0 0 17 17" fill="none">
  <path d="M1.80005 4.64962L15.0655 12.3084M1.80005 4.64962C-0.340036 8.35636 0.894624 13.0758 4.55778 15.1907M1.80005 4.64962C3.94015 0.942854 8.64462 -0.347588 12.3078 1.76734M15.0655 12.3084C12.9254 16.0152 8.22091 17.3056 4.55778 15.1907M15.0655 12.3084C17.2056 8.60168 15.9709 3.88225 12.3078 1.76734M4.55778 15.1907C7.27796 14.3107 9.99579 12.6997 11.4838 10.2406C12.8695 7.72232 12.9057 4.56309 12.3078 1.76734M4.55778 15.1907C3.95988 12.395 3.99611 9.23579 5.38173 6.71751C6.8698 4.25841 9.58764 2.64739 12.3078 1.76734" stroke="#0769EB" stroke-width="1.5" stroke-linecap="round" stroke-linejoin="round"/>
</svg>