<svg xmlns="http://www.w3.org/2000/svg" width="14" height="14" viewBox="0 0 14 14" fill="none">
  <path d="M1.44004 3.7197L12.0524 9.84676M1.44004 3.7197C-0.272029 6.68509 0.715699 10.4606 3.64623 12.1526M1.44004 3.7197C3.15212 0.754284 6.9157 -0.27807 9.84623 1.41387M12.0524 9.84676C10.3403 12.8121 6.57673 13.8445 3.64623 12.1526M12.0524 9.84676C13.7645 6.88134 12.7767 3.1058 9.84623 1.41387M3.64623 12.1526C5.82237 11.4485 7.99663 10.1598 9.18707 8.19245C10.2956 6.17786 10.3246 3.65047 9.84623 1.41387M3.64623 12.1526C3.1679 9.91597 3.19689 7.38863 4.30538 5.37401C5.49584 3.40673 7.67011 2.11791 9.84623 1.41387" stroke="white" stroke-width="1.2" stroke-linecap="round" stroke-linejoin="round"/>
</svg>