<svg xmlns="http://www.w3.org/2000/svg" width="19" height="19" viewBox="0 0 19 19" fill="none">
  <path d="M9.0498 5.3165C9.0498 5.3165 8.36173 1.44455 4.47982 0.767273C3.80254 0.648583 3.2398 1.22045 3.2398 1.90769V11.9615C3.2398 12.4196 3.6133 12.7848 4.0698 12.8355C8.31359 13.3069 9.0498 17.3515 9.0498 17.3515M9.0498 5.3165V17.3515M9.0498 5.3165C10.5695 3.97771 12.5416 3.23901 14.5834 3.2415C14.7367 3.2415 14.8889 3.24565 15.0399 3.25395C15.9728 3.30292 16.4393 3.32782 16.8941 3.80839C17.3498 4.28896 17.3498 4.88075 17.3498 6.06599V12.9218C17.3498 13.9444 17.3498 14.4548 17.1664 14.7412C17.0821 14.8876 16.9607 15.0092 16.8145 15.0939C16.5281 15.2765 15.8799 15.2765 14.5834 15.2765C12.5477 15.2712 10.5801 16.009 9.0498 17.3515M9.0498 17.3515C7.51951 16.009 5.55207 15.272 3.51639 15.2773C2.21993 15.2773 1.5717 15.2773 1.28535 15.0947C1.11354 14.9843 1.04382 14.9138 0.933431 14.742C0.750001 14.4556 0.75 13.9452 0.75 12.9226V6.06679C0.75 4.88155 0.75 4.28976 1.20567 3.80919C1.66134 3.32862 2.30791 3.29127 3.24 3.24147" stroke="#0769EB" stroke-width="1.5" stroke-linecap="round" stroke-linejoin="round"/>
</svg>