<svg xmlns="http://www.w3.org/2000/svg" width="20" height="20" viewBox="0 0 20 20" fill="none">
  <path d="M10.0001 6.26499C10.0001 6.26499 9.31199 2.39304 5.43008 1.71576C4.7528 1.59707 4.19006 2.16894 4.19006 2.85618V12.91C4.19006 13.3681 4.56356 13.7333 5.02006 13.784C9.26385 14.2554 10.0001 18.3 10.0001 18.3M10.0001 6.26499V18.3M10.0001 6.26499C11.5198 4.9262 13.4919 4.1875 15.5337 4.18999C15.6869 4.18999 15.8391 4.19414 15.9902 4.20244C16.9231 4.25141 17.3896 4.27631 17.8444 4.75688C18.3001 5.23745 18.3001 5.82924 18.3001 7.01448V13.8703C18.3001 14.8928 18.3001 15.4033 18.1166 15.6896C18.0323 15.8361 17.9109 15.9577 17.7647 16.0424C17.4784 16.225 16.8301 16.225 15.5337 16.225C13.498 16.2197 11.5304 16.9575 10.0001 18.3M10.0001 18.3C8.46976 16.9575 6.50233 16.2205 4.46665 16.2258C3.17019 16.2258 2.52196 16.2258 2.23561 16.0432C2.0638 15.9328 1.99408 15.8623 1.88369 15.6904C1.70026 15.4041 1.70026 14.8936 1.70026 13.8711V7.01528C1.70026 5.83004 1.70026 5.23825 2.15593 4.75768C2.6116 4.27711 3.25817 4.23976 4.19026 4.18996" stroke="#3D424D" stroke-width="1.5" stroke-linecap="round" stroke-linejoin="round"/>
</svg>