<svg xmlns="http://www.w3.org/2000/svg" width="16" height="16" viewBox="0 0 16 16" fill="none">
  <path d="M12.9246 9.51992V11.3679C12.9246 12.1072 12.9246 12.4769 12.7807 12.7592C12.6542 13.0076 12.4522 13.2095 12.2038 13.336C11.9215 13.4799 11.5518 13.4799 10.8126 13.4799H6.32456H4.47656C3.7373 13.4799 3.36763 13.4799 3.08528 13.336C2.83692 13.2095 2.63496 13.0076 2.50844 12.7592C2.36456 12.4769 2.36456 12.1072 2.36456 11.3679V6.87992V5.03192C2.36456 4.29265 2.36456 3.92302 2.50844 3.64066C2.63498 3.39228 2.83692 3.19034 3.0853 3.0638C3.36766 2.91992 3.7373 2.91992 4.47656 2.91992H6.32456" stroke="#207EFA" stroke-width="1.2" stroke-linecap="round" stroke-linejoin="round"/>
  <path d="M13.6444 2.19995H9.64441M13.6444 2.19995V6.19995M13.6444 2.19995L7.64441 8.19995" stroke="#207EFA" stroke-width="1.2" stroke-linecap="round" stroke-linejoin="round"/>
</svg>