<svg xmlns="http://www.w3.org/2000/svg" width="20" height="20" viewBox="0 0 20 20" fill="none">
  <path d="M6.4177 5.68676H13.5821M6.4177 5.68676L6.41769 4.22665C6.41766 4.13874 6.41763 4.03763 6.42486 3.94915C6.43317 3.8475 6.45419 3.70614 6.52925 3.55883C6.62737 3.36625 6.78395 3.20968 6.97653 3.11156C7.12383 3.0365 7.2652 3.01547 7.36684 3.00717C7.45532 2.99994 7.55643 2.99997 7.64434 3H12.3554C12.4433 2.99997 12.5444 2.99994 12.6329 3.00717C12.7346 3.01547 12.8759 3.0365 13.0232 3.11156C13.2158 3.20968 13.3724 3.36625 13.4705 3.55883C13.5456 3.70614 13.5666 3.8475 13.5749 3.94915C13.5821 4.03763 13.5821 4.13875 13.5821 4.22665L13.5821 5.68676M6.4177 5.68676L5.15053 5.68676C4.86433 5.68675 4.61101 5.68674 4.40109 5.70389C4.17754 5.72215 3.9459 5.7631 3.72041 5.878C3.39027 6.04621 3.12186 6.31462 2.95364 6.64476C2.83875 6.87026 2.7978 7.1019 2.77953 7.32544C2.76238 7.53537 2.7624 7.78867 2.76241 8.07489V14.4838C2.7624 14.7701 2.76238 15.0234 2.77953 15.2333C2.7978 15.4568 2.83875 15.6885 2.95364 15.914C3.12186 16.2441 3.39027 16.5125 3.72041 16.6807C3.9459 16.7956 4.17754 16.8366 4.40109 16.8548C4.611 16.872 4.86428 16.872 5.15046 16.872H14.8492C15.1354 16.872 15.3888 16.872 15.5987 16.8548C15.8222 16.8366 16.0539 16.7956 16.2794 16.6807C16.6095 16.5125 16.8779 16.2441 17.0461 15.914C17.161 15.6885 17.202 15.4568 17.2202 15.2333C17.2374 15.0234 17.2374 14.7701 17.2374 14.484V8.07489C17.2374 7.78873 17.2374 7.53534 17.2202 7.32544C17.202 7.1019 17.161 6.87026 17.0461 6.64476C16.8779 6.31462 16.6095 6.04621 16.2794 5.878C16.0539 5.7631 15.8222 5.72215 15.5987 5.70389C15.3888 5.68674 15.1355 5.68675 14.8493 5.68676L13.5821 5.68676" stroke="#0769EB" stroke-width="1.5"/>
  <path d="M11.3633 9.97803H8.62695V10.022H11.3633V9.97803Z" stroke="#0769EB" stroke-width="1.5"/>
</svg>