<svg xmlns="http://www.w3.org/2000/svg" width="20" height="20" viewBox="0 0 20 20" fill="none">
  <path d="M5.93568 17.4931V8.56318M1.87665 10.1868V15.8694C1.87665 16.7662 2.60356 17.4931 3.50026 17.4931H14.3997C15.6019 17.4931 16.6241 16.6161 16.8069 15.428L17.6811 9.74534C17.9081 8.27004 16.7666 6.93957 15.274 6.93957H12.4301C11.9818 6.93957 11.6183 6.57611 11.6183 6.12777V3.25871C11.6183 2.15315 10.7221 1.25693 9.61657 1.25693C9.35282 1.25693 9.1139 1.41223 9.00682 1.65319L6.14995 8.08105C6.01965 8.37428 5.72893 8.56318 5.40811 8.56318H3.50026C2.60356 8.56318 1.87665 9.29008 1.87665 10.1868Z" stroke="#6F7581" stroke-width="1.5" stroke-linecap="round" stroke-linejoin="round"/>
</svg>