<svg width="20" height="20" viewBox="0 0 20 20" fill="none" xmlns="http://www.w3.org/2000/svg">
<path d="M13.9686 2.91882V11.6247M17.9258 9.09209V5.45144C17.9258 4.56494 17.9258 4.12169 17.7533 3.7831C17.6015 3.48525 17.3594 3.2431 17.0615 3.09135C16.7229 2.91882 16.2797 2.91882 15.3932 2.91882H6.93896C5.78228 2.91882 5.20394 2.91882 4.73683 3.13048C4.32513 3.31703 3.97523 3.61721 3.72826 3.99576C3.44803 4.42525 3.36009 4.99687 3.18421 6.14009L2.77022 8.831C2.53825 10.3388 2.42226 11.0928 2.64601 11.6794C2.84239 12.1943 3.21177 12.6249 3.69081 12.8973C4.23659 13.2076 4.9994 13.2076 6.52498 13.2076H7.16214C7.6054 13.2076 7.82702 13.2076 7.99632 13.2939C8.14524 13.3698 8.26632 13.4908 8.34219 13.6397C8.42849 13.809 8.42849 14.0306 8.42849 14.4739V16.7962C8.42849 17.8739 9.30217 18.7477 10.38 18.7477C10.6371 18.7477 10.8701 18.5963 10.9745 18.3614L13.6344 12.3767C13.7553 12.1045 13.8158 11.9684 13.9114 11.8686C13.9959 11.7804 14.0997 11.713 14.2147 11.6716C14.3447 11.6247 14.4936 11.6247 14.7915 11.6247H15.3932C16.2797 11.6247 16.7229 11.6247 17.0615 11.4522C17.3594 11.3005 17.6015 11.0583 17.7533 10.7604C17.9258 10.4219 17.9258 9.97858 17.9258 9.09209Z" stroke="#252A32" stroke-width="1.5" stroke-linecap="round" stroke-linejoin="round"/>
</svg>
