<svg xmlns="http://www.w3.org/2000/svg" width="20" height="20" viewBox="0 0 20 20" fill="none">
  <path d="M14.0091 2.83328V11.6333M18.0091 9.07328V5.39328C18.0091 4.49719 18.0091 4.04915 17.8347 3.7069C17.6812 3.40583 17.4365 3.16107 17.1354 3.00767C16.7931 2.83328 16.3451 2.83328 15.4491 2.83328H6.90342C5.73424 2.83328 5.14964 2.83328 4.67748 3.04723C4.26133 3.23579 3.90765 3.53922 3.658 3.92186C3.37475 4.35599 3.28586 4.93379 3.10808 6.08938L2.68961 8.80938C2.45513 10.3335 2.33788 11.0956 2.56406 11.6886C2.76256 12.209 3.13593 12.6442 3.62016 12.9196C4.17184 13.2333 4.94288 13.2333 6.48496 13.2333H7.12901C7.57706 13.2333 7.80108 13.2333 7.9722 13.3205C8.12274 13.3972 8.24512 13.5195 8.32182 13.6701C8.40905 13.8412 8.40905 14.0652 8.40905 14.5133V16.8606C8.40905 17.9501 9.29217 18.8333 10.3817 18.8333C10.6415 18.8333 10.8771 18.6802 10.9826 18.4428L13.6712 12.3934C13.7935 12.1182 13.8546 11.9807 13.9512 11.8798C14.0367 11.7906 14.1416 11.7225 14.2578 11.6806C14.3892 11.6333 14.5398 11.6333 14.8408 11.6333H15.4491C16.3451 11.6333 16.7931 11.6333 17.1354 11.4589C17.4365 11.3055 17.6812 11.0607 17.8347 10.7597C18.0091 10.4174 18.0091 9.96936 18.0091 9.07328Z" stroke="#6F7581" stroke-width="1.5" stroke-linecap="round" stroke-linejoin="round"/>
</svg>