<svg xmlns="http://www.w3.org/2000/svg" width="20" height="20" viewBox="0 0 20 20" fill="#0769EB">
  <path d="M14.0739 2.69614V11.647M18.1425 9.04311V5.30002C18.1425 4.38857 18.1425 3.93285 17.9651 3.58473C17.809 3.2785 17.5601 3.02954 17.2538 2.87352C16.9057 2.69614 16.45 2.69614 15.5386 2.69614H6.84647C5.65724 2.69614 5.06263 2.69614 4.58237 2.91375C4.15909 3.10555 3.79934 3.41417 3.54542 3.80337C3.25731 4.24495 3.16689 4.83266 2.98606 6.00805L2.56042 8.77468C2.32193 10.3249 2.20267 11.1001 2.43272 11.7032C2.63463 12.2326 3.0144 12.6753 3.50692 12.9554C4.06806 13.2744 4.85232 13.2744 6.42084 13.2744H7.07593C7.53166 13.2744 7.75951 13.2744 7.93357 13.3631C8.08669 13.4411 8.21117 13.5656 8.28918 13.7187C8.37791 13.8928 8.37791 14.1206 8.37791 14.5764V16.964C8.37791 18.0721 9.27617 18.9704 10.3844 18.9704C10.6487 18.9704 10.8882 18.8148 10.9955 18.5732L13.7303 12.4202C13.8546 12.1403 13.9168 12.0004 14.0151 11.8978C14.102 11.807 14.2087 11.7377 14.3269 11.6952C14.4606 11.647 14.6137 11.647 14.9199 11.647H15.5386C16.45 11.647 16.9057 11.647 17.2538 11.4696C17.5601 11.3136 17.809 11.0646 17.9651 10.7584C18.1425 10.4103 18.1425 9.95455 18.1425 9.04311Z" stroke="#0769EB" stroke-width="1.5" stroke-linecap="round" stroke-linejoin="round"/>
</svg>