<svg width="20" height="20" viewBox="0 0 20 20" fill="none" xmlns="http://www.w3.org/2000/svg">
<path d="M6.04126 17.2318V8.5463M2.09332 10.1255V15.6526C2.09332 16.5248 2.80034 17.2318 3.6725 17.2318H14.2737C15.4429 17.2318 16.4371 16.3788 16.615 15.2232L17.4653 9.6961C17.686 8.26118 16.5758 6.96712 15.1241 6.96712H12.358C11.9219 6.96712 11.5684 6.61361 11.5684 6.17753V3.387C11.5684 2.3117 10.6967 1.44 9.62142 1.44C9.36488 1.44 9.1325 1.59105 9.02836 1.82542L6.24967 8.07736C6.12294 8.36256 5.84017 8.5463 5.52813 8.5463H3.6725C2.80034 8.5463 2.09332 9.2533 2.09332 10.1255Z" stroke="#0769EB" stroke-width="1.5" stroke-linecap="round" stroke-linejoin="round"/>
</svg>
