<svg xmlns="http://www.w3.org/2000/svg" width="18" height="18" viewBox="0 0 18 18" fill="none">
  <path d="M4.75 16.75V7.95M0.75 9.55V15.15C0.75 16.0337 1.46634 16.75 2.35 16.75H13.091C14.2756 16.75 15.283 15.8858 15.4631 14.715L16.3246 9.11496C16.5483 7.66112 15.4234 6.35 13.9526 6.35H11.15C10.7082 6.35 10.35 5.99182 10.35 5.55V2.72267C10.35 1.63319 9.4668 0.75 8.37736 0.75C8.11744 0.75 7.882 0.90304 7.77648 1.1405L4.96115 7.47488C4.83275 7.76384 4.54626 7.95 4.2301 7.95H2.35C1.46634 7.95 0.75 8.66632 0.75 9.55Z" stroke="#6F7581" stroke-width="1.5" stroke-linecap="round" stroke-linejoin="round"/>
</svg>