<svg width="20" height="20" viewBox="0 0 20 20" fill="none" xmlns="http://www.w3.org/2000/svg">
  <path d="M5.99176 17.375V8.575M1.99176 10.175V15.775C1.99176 16.6587 2.7081 17.375 3.59176 17.375H14.3327C15.5174 17.375 16.5247 16.5108 16.7049 15.34L17.5664 9.73996C17.7901 8.28612 16.6652 6.975 15.1943 6.975H12.3918C11.9499 6.975 11.5918 6.61682 11.5918 6.175V3.34767C11.5918 2.25819 10.7086 1.375 9.61912 1.375C9.3592 1.375 9.12376 1.52804 9.01824 1.7655L6.20291 8.09988C6.07451 8.38884 5.78802 8.575 5.47186 8.575H3.59176C2.7081 8.575 1.99176 9.29132 1.99176 10.175Z" stroke="#0769EB" stroke-width="1.5" stroke-linecap="round" stroke-linejoin="round"/>
</svg>